#!OML:ASF H:\Dans Jumps\Project 1\Capture day 1\Session 1\subject.ASF
:FULLY-SPECIFIED
:DEGREES
603
root 0.408799 17.6485 -6.56066 11.2367 -1.56688 -1.49524
lowerback 4.49702 0.537399 -0.191819
upperback 5.76582 0.687599 0.840548
thorax 3.40709 0.315755 0.963199
lowerneck -13.3842 0.282209 -0.784902
upperneck 31.9787 0.175206 1.35193
head 12.8777 0.156694 0.685305
rclavicle -5.91384e-015 -9.54166e-015
rhumerus -38.23 -12.8627 -76.5152
rradius 30.9604
rwrist 27.7139
rhand -18.4649 -25.9135
rfingers 7.12502
rthumb 7.82165 -55.7488
lclavicle -5.91384e-015 -9.54166e-015
lhumerus -38.0824 3.44683 82.8887
lradius 19.4133
lwrist 10.1405
lhand -27.2447 -4.43061
lfingers 7.12502
lthumb -0.656386 25.5481
rfemur -25.4352 -1.45174 19.0479
rtibia 27.4936
rfoot -12.4298 1.35379
rtoes 14.0622
lfemur -23.515 7.53371 -18.9528
ltibia 25.2565
lfoot -10.8178 5.54558
ltoes 5.74314
604
root 0.40614 17.6482 -6.56687 11.2271 -1.573 -1.47765
lowerback 4.5112 0.529354 -0.209751
upperback 5.77322 0.676734 0.832129
thorax 3.40697 0.309814 0.96464
lowerneck -13.3565 0.274681 -0.803601
upperneck 31.9992 0.166526 1.35922
head 12.8804 0.151401 0.69016
rclavicle -1.17283e-014 -1.04362e-015
rhumerus -38.234 -12.9192 -76.5121
rradius 30.9298
rwrist 27.5901
rhand -18.4784 -25.9109
rfingers 7.12502
rthumb 7.80857 -55.7467
lclavicle -1.17283e-014 -1.04362e-015
lhumerus -38.1207 3.35341 83.0152
lradius 19.4667
lwrist 10.1881
lhand -27.2654 -4.53607
lfingers 7.12502
lthumb -0.67642 25.4426
rfemur -25.4592 -1.43964 19.0365
rtibia 27.5128
rfoot -12.4188 1.34716
rtoes 14.0766
lfemur -23.524 7.54462 -18.9652
ltibia 25.2499
lfoot -10.8039 5.53235
ltoes 5.73991
605
root 0.403335 17.6478 -6.57322 11.2148 -1.57646 -1.46377
lowerback 4.5259 0.520935 -0.224106
upperback 5.78211 0.665386 0.825485
thorax 3.40815 0.303719 0.965925
lowerneck -13.3275 0.266184 -0.827233
upperneck 32.0109 0.15784 1.36663
head 12.8791 0.145545 0.695844
rclavicle 6.63444e-015 -3.926e-015
rhumerus -38.2247 -12.9602 -76.5246
rradius 30.9056
rwrist 27.4591
rhand -18.4764 -25.9125
rfingers 7.12502
rthumb 7.81051 -55.7483
lclavicle 6.63444e-015 -3.926e-015
lhumerus -38.1438 3.22395 83.1692
lradius 19.5435
lwrist 10.2812
lhand -27.3108 -4.68684
lfingers 7.12502
lthumb -0.720304 25.2917
rfemur -25.4795 -1.42569 19.0297
rtibia 27.5306
rfoot -12.4072 1.33667
rtoes 14.0889
lfemur -23.5331 7.55335 -18.9717
ltibia 25.2476
lfoot -10.7896 5.51852
ltoes 5.73304
606
root 0.400413 17.6474 -6.57969 11.2026 -1.57679 -1.45789
lowerback 4.5388 0.512233 -0.230618
upperback 5.7919 0.653736 0.821685
thorax 3.41134 0.297698 0.965782
lowerneck -13.3095 0.257735 -0.844609
upperneck 32.0248 0.150747 1.36434
head 12.8812 0.139905 0.696988
rclavicle -1.68967e-015 9.44227e-016
rhumerus -38.1966 -12.9839 -76.555
rradius 30.883
rwrist 27.3244
rhand -18.4627 -25.9269
rfingers 7.12502
rthumb 7.82375 -55.7621
lclavicle -1.68967e-015 9.44227e-016
lhumerus -38.15 3.06632 83.3444
lradius 19.661
lwrist 10.4313
lhand -27.332 -4.76352
lfingers 7.12502
lthumb -0.740698 25.2149
rfemur -25.4982 -1.40969 19.032
rtibia 27.5455
rfoot -12.3933 1.32364
rtoes 14.1045
lfemur -23.5458 7.55979 -18.9682
ltibia 25.2509
lfoot -10.7766 5.50445
ltoes 5.72617
